<?xml version="1.0" standalone="no"?>
<!DOCTYPE svg PUBLIC "-//W3C//DTD SVG 20010904//EN"
 "http://www.w3.org/TR/2001/REC-SVG-20010904/DTD/svg10.dtd">
<svg version="1.0" xmlns="http://www.w3.org/2000/svg"
 width="300.000000pt" height="300.000000pt" viewBox="0 0 300.000000 300.000000"
 preserveAspectRatio="xMidYMid meet">
<metadata>
Created by potrace 1.11, written by Peter Selinger 2001-2013
</metadata>
<g transform="translate(0.000000,300.000000) scale(0.100000,-0.100000)"
fill="#000000" stroke="none">
<path d="M1454 2323 c-27 -14 -66 -37 -86 -50 -21 -12 -39 -23 -42 -23 -2 0
-60 -33 -127 -73 -68 -40 -131 -76 -139 -80 -8 -4 -36 -20 -61 -35 -25 -15
-89 -52 -142 -82 l-97 -55 0 -430 0 -430 201 -115 c111 -63 220 -126 243 -139
22 -13 98 -57 168 -97 l127 -74 242 140 c132 77 245 140 250 140 5 0 9 5 9 10
0 6 4 10 10 10 5 0 44 20 86 45 41 25 79 45 82 45 4 0 20 11 36 23 l29 23 -2
115 c-1 63 -2 253 -2 422 l-1 308 -37 23 c-20 12 -112 67 -206 120 -93 54
-177 102 -185 106 -112 67 -148 87 -160 93 -15 7 -54 30 -116 68 -30 18 -31
18 -80 -8z"/>
</g>
</svg>
